<svg width="38" height="38" viewBox="0 0 38 38" fill="none" xmlns="http://www.w3.org/2000/svg">
<g id="mdi-light:cart" clip-path="url(#clip0_15_9)">
<path id="Vector" d="M29.6667 29.5C30.6834 29.5 31.6584 29.9039 32.3773 30.6228C33.0962 31.3416 33.5 32.3167 33.5 33.3333C33.5 34.35 33.0962 35.325 32.3773 36.0439C31.6584 36.7628 30.6834 37.1667 29.6667 37.1667C28.65 37.1667 27.675 36.7628 26.9561 36.0439C26.2372 35.325 25.8334 34.35 25.8334 33.3333C25.8334 32.3167 26.2372 31.3416 26.9561 30.6228C27.675 29.9039 28.65 29.5 29.6667 29.5ZM29.6667 31.4167C29.1584 31.4167 28.6708 31.6186 28.3114 31.978C27.952 32.3375 27.75 32.825 27.75 33.3333C27.75 33.8417 27.952 34.3292 28.3114 34.6886C28.6708 35.0481 29.1584 35.25 29.6667 35.25C30.175 35.25 30.6625 35.0481 31.022 34.6886C31.3814 34.3292 31.5834 33.8417 31.5834 33.3333C31.5834 32.825 31.3814 32.3375 31.022 31.978C30.6625 31.6186 30.175 31.4167 29.6667 31.4167ZM12.4167 29.5C13.4334 29.5 14.4084 29.9039 15.1273 30.6228C15.8462 31.3416 16.25 32.3167 16.25 33.3333C16.25 34.35 15.8462 35.325 15.1273 36.0439C14.4084 36.7628 13.4334 37.1667 12.4167 37.1667C11.4 37.1667 10.425 36.7628 9.70611 36.0439C8.98722 35.325 8.58335 34.35 8.58335 33.3333C8.58335 32.3167 8.98722 31.3416 9.70611 30.6228C10.425 29.9039 11.4 29.5 12.4167 29.5ZM12.4167 31.4167C11.9084 31.4167 11.4208 31.6186 11.0614 31.978C10.702 32.3375 10.5 32.825 10.5 33.3333C10.5 33.8417 10.702 34.3292 11.0614 34.6886C11.4208 35.0481 11.9084 35.25 12.4167 35.25C12.925 35.25 13.4125 35.0481 13.772 34.6886C14.1314 34.3292 14.3334 33.8417 14.3334 33.3333C14.3334 32.825 14.1314 32.3375 13.772 31.978C13.4125 31.6186 12.925 31.4167 12.4167 31.4167ZM33.5 6.5H7.18994L12.0717 18H27.75C28.0481 18.0005 28.342 17.931 28.6084 17.7972C28.8747 17.6633 29.1059 17.4689 29.2834 17.2295L35.0334 9.56283H35.0353C35.2478 9.27793 35.377 8.93953 35.4083 8.58545C35.4396 8.23138 35.3718 7.87557 35.2125 7.55779C35.0532 7.24002 34.8087 6.9728 34.5063 6.786C34.2039 6.5992 33.8555 6.50018 33.5 6.5ZM27.75 19.9167H12.1599L10.6917 22.9067L10.5 23.75C10.5 24.2583 10.702 24.7458 11.0614 25.1053C11.4208 25.4647 11.9084 25.6667 12.4167 25.6667H33.5V27.5833H12.4167C11.7492 27.5837 11.0933 27.4097 10.5137 27.0787C9.93411 26.7477 9.45101 26.2711 9.11217 25.696C8.77334 25.121 8.59053 24.4674 8.58182 23.8C8.57311 23.1326 8.73881 22.4745 9.06252 21.8908L10.4425 19.0657L3.48119 2.66667H0.916687V0.75H4.75002L6.37727 4.58333H33.5C34.2243 4.5834 34.9337 4.78865 35.5461 5.1753C36.1585 5.56196 36.6489 6.11419 36.9604 6.76805C37.2719 7.42191 37.3917 8.15063 37.3061 8.86981C37.2205 9.589 36.9329 10.2692 36.4766 10.8317L30.8914 18.2798C30.5383 18.7855 30.0683 19.1983 29.5214 19.4833C28.9744 19.7683 28.3668 19.917 27.75 19.9167Z" fill="black"/>
</g>
<defs>
<clipPath id="clip0_15_9">
<rect width="38" height="38" fill="white"/>
</clipPath>
</defs>
</svg>
